<svg width="25" height="26" viewBox="0 0 25 26" fill="none" xmlns="http://www.w3.org/2000/svg">
<path fill-rule="evenodd" clip-rule="evenodd" d="M17.6755 0C18.0897 0 18.4255 0.335786 18.4255 0.75V1.78987H19.9536C22.715 1.78987 24.9536 4.02845 24.9536 6.78987V20.7037C24.9536 23.4651 22.715 25.7037 19.9536 25.7037H5C2.23858 25.7037 0 23.4651 0 20.7037V6.78987C0 4.02845 2.23858 1.78987 5 1.78987H6.52809V0.75C6.52809 0.335786 6.86387 0 7.27809 0C7.6923 0 8.02809 0.335786 8.02809 0.75V1.78987H16.9255V0.75C16.9255 0.335786 17.2613 0 17.6755 0ZM6.52809 3.28987V4.38906C6.52809 4.80327 6.86387 5.13906 7.27809 5.13906C7.6923 5.13906 8.02809 4.80327 8.02809 4.38906V3.28987H16.9255V4.38906C16.9255 4.80327 17.2613 5.13906 17.6755 5.13906C18.0897 5.13906 18.4255 4.80327 18.4255 4.38906V3.28987H19.9536C21.8865 3.28987 23.4536 4.85688 23.4536 6.78987V8.57778H1.5V6.78987C1.5 4.85688 3.067 3.28987 5 3.28987H6.52809ZM1.5 10.0778V20.7037C1.5 22.6367 3.067 24.2037 5 24.2037H19.9536C21.8865 24.2037 23.4536 22.6367 23.4536 20.7037V10.0778H1.5Z" fill="url(#paint0_linear)"/>
<defs>
<linearGradient id="paint0_linear" x1="12.4768" y1="0" x2="12.4768" y2="36.3559" gradientUnits="userSpaceOnUse">
<stop offset="0.0208333" stop-color="#C9984A"/>
<stop offset="0.46875" stop-color="#D0A14C"/>
<stop offset="1" stop-color="#AC7710"/>
</linearGradient>
</defs>
</svg>
