<svg width="22" height="21" viewBox="0 0 22 21" fill="none" xmlns="http://www.w3.org/2000/svg">
<path fill-rule="evenodd" clip-rule="evenodd" d="M17.422 15.6767C17.0791 15.3734 15.3879 13.8989 15.0602 13.67C14.7328 13.4413 14.4861 13.3051 14.1168 13.6287C13.7471 13.9522 12.7507 14.6366 12.4492 14.8374C12.1476 15.0385 11.9081 15.0097 11.565 14.7063C11.2219 14.403 10.0578 13.645 8.9052 11.8975C8.00833 10.5374 7.55955 9.03432 7.43413 8.57813C7.3092 8.12165 7.58956 7.99027 7.82328 7.82058C8.39377 7.40576 8.97171 6.96546 9.17406 6.73802C9.37664 6.51044 9.37216 6.26256 9.32584 6.03885C9.27991 5.81525 9.00779 3.66376 8.88942 2.78625C8.77358 1.9321 8.41968 1.94844 8.17973 1.87124C7.95213 1.79797 7.6887 1.72488 7.42465 1.65413C7.16079 1.58343 6.70545 1.56696 6.2367 1.86437C5.7682 2.16163 4.49019 2.84068 3.97055 4.78002C3.4509 6.71936 4.36751 8.97298 4.49494 9.28899C4.62236 9.60499 6.14987 14.2797 9.66393 17.0503C10.4996 17.7097 11.172 18.1495 11.6985 18.4852C12.5666 19.0392 13.4408 19.228 14.1502 19.3095C14.9413 19.4001 16.7478 18.9838 17.3246 18.152C17.901 17.3199 18.1123 16.5312 18.0573 16.3401C18.0026 16.1493 17.7649 15.9801 17.422 15.6767Z" stroke="url(#paint0_linear)" stroke-width="1.2"/>
<defs>
<linearGradient id="paint0_linear" x1="13.0289" y1="3.15577" x2="7.39444" y2="24.1837" gradientUnits="userSpaceOnUse">
<stop offset="0.0208333" stop-color="#C9984A"/>
<stop offset="0.46875" stop-color="#D0A14C"/>
<stop offset="1" stop-color="#AC7710"/>
</linearGradient>
</defs>
</svg>
