<svg width="40" height="40" viewBox="0 0 40 40" fill="none" xmlns="http://www.w3.org/2000/svg">
<path d="M0.254223 19.2219C0.611565 18.7331 9.12588 7.25269 20.0002 7.25269C30.8745 7.25269 39.3892 18.7331 39.7462 19.2215C40.0846 19.6852 40.0846 20.3142 39.7462 20.7779C39.3892 21.2668 30.8745 32.7472 20.0002 32.7472C9.12588 32.7472 0.611565 21.2667 0.254223 20.7783C-0.0846863 20.3147 -0.0846863 19.6852 0.254223 19.2219ZM20.0002 30.1098C28.0103 30.1098 34.9479 22.4901 37.0016 19.999C34.9505 17.5058 28.0275 9.89003 20.0002 9.89003C11.9905 9.89003 5.05337 17.5085 2.99883 20.0008C5.04985 22.494 11.9729 30.1098 20.0002 30.1098Z" fill="black"/>
<path d="M20.0002 12.0879C24.3629 12.0879 27.9124 15.6374 27.9124 20C27.9124 24.3627 24.3629 27.9121 20.0002 27.9121C15.6376 27.9121 12.0881 24.3627 12.0881 20C12.0881 15.6374 15.6376 12.0879 20.0002 12.0879ZM20.0002 25.2747C22.9088 25.2747 25.2749 22.9085 25.2749 20C25.2749 17.0915 22.9088 14.7253 20.0002 14.7253C17.0917 14.7253 14.7255 17.0915 14.7255 20C14.7255 22.9085 17.0916 25.2747 20.0002 25.2747Z" fill="black"/>
</svg>
