<svg width="20" height="20" viewBox="0 0 20 20" fill="none" xmlns="http://www.w3.org/2000/svg">
<path d="M8.2912 15.2433L5.93451 17.6C4.95747 18.5771 3.37523 18.5771 2.39902 17.6002C1.42261 16.6238 1.42261 15.0414 2.39882 14.0652L7.11303 9.35101C8.08925 8.37475 9.67164 8.37475 10.6479 9.35101C10.9733 9.67644 11.5009 9.67644 11.8264 9.35101C12.1518 9.02558 12.1518 8.49792 11.8264 8.17249C10.1993 6.54537 7.56163 6.54537 5.93451 8.17249L1.22034 12.8867C-0.40678 14.5138 -0.40678 17.1514 1.22034 18.7785C2.84726 20.4065 5.48509 20.4065 7.11307 18.7785L9.46976 16.4218C9.79519 16.0964 9.79519 15.5687 9.46976 15.2433C9.14433 14.9179 8.61663 14.9179 8.2912 15.2433Z" fill="url(#paint0_linear)"/>
<path d="M18.7795 1.22034C17.1524 -0.40678 14.5139 -0.40678 12.8867 1.22034L10.0592 4.04785C9.73379 4.37329 9.73379 4.90095 10.0592 5.22638C10.3847 5.55181 10.9123 5.55181 11.2377 5.22638L14.0653 2.39886C15.0415 1.42261 16.6247 1.42261 17.6009 2.39886C18.5772 3.37508 18.5772 4.95747 17.6009 5.93369L12.4159 11.1188C11.4397 12.095 9.85731 12.095 8.88109 11.1188C8.55566 10.7933 8.028 10.7933 7.70257 11.1188C7.37714 11.4442 7.37714 11.9718 7.70257 12.2973C9.32969 13.9244 11.9673 13.9244 13.5944 12.2973L18.7795 7.11225C20.4066 5.48513 20.4066 2.84746 18.7795 1.22034Z" fill="url(#paint1_linear)"/>
<defs>
<linearGradient id="paint0_linear" x1="6.03523" y1="6.95215" x2="6.03523" y2="25.4066" gradientUnits="userSpaceOnUse">
<stop offset="0.0208333" stop-color="#C9984A"/>
<stop offset="0.46875" stop-color="#D0A14C"/>
<stop offset="1" stop-color="#AC7710"/>
</linearGradient>
<linearGradient id="paint1_linear" x1="13.7292" y1="0" x2="13.7292" y2="19.1196" gradientUnits="userSpaceOnUse">
<stop offset="0.0208333" stop-color="#C9984A"/>
<stop offset="0.46875" stop-color="#D0A14C"/>
<stop offset="1" stop-color="#AC7710"/>
</linearGradient>
</defs>
</svg>
