<svg width="164" height="80" viewBox="0 0 164 80" fill="none" xmlns="http://www.w3.org/2000/svg">
<path d="M5.4355 33.392C5.4355 34.1813 5.6275 34.8853 6.0115 35.504C6.41683 36.1013 6.9075 36.624 7.4835 37.072C8.08083 37.52 8.88083 38.0533 9.8835 38.672C10.9715 39.3547 11.8248 39.9413 12.4435 40.432C13.0835 40.9227 13.6168 41.5307 14.0435 42.256C14.4915 42.96 14.7155 43.792 14.7155 44.752C14.7155 45.84 14.4275 46.8107 13.8515 47.664C13.2968 48.5173 12.4968 49.1893 11.4515 49.68C10.4275 50.1493 9.25417 50.384 7.9315 50.384C7.0355 50.384 6.1075 50.2667 5.1475 50.032C4.20883 49.7973 3.49417 49.5093 3.0035 49.168C2.8115 49.04 2.70483 48.8373 2.6835 48.56L2.4915 43.696V43.664C2.4915 43.5787 2.54483 43.536 2.6515 43.536C2.75817 43.5147 2.82217 43.5467 2.8435 43.632C3.5475 45.4027 4.3475 46.8533 5.2435 47.984C6.16083 49.1147 7.3235 49.68 8.7315 49.68C9.64883 49.68 10.4168 49.4347 11.0355 48.944C11.6542 48.432 11.9635 47.5893 11.9635 46.416C11.9635 45.4773 11.7502 44.656 11.3235 43.952C10.9182 43.248 10.4062 42.6613 9.7875 42.192C9.19017 41.7227 8.36883 41.1467 7.3235 40.464C6.2995 39.8027 5.4995 39.248 4.9235 38.8C4.3475 38.3307 3.85683 37.7653 3.4515 37.104C3.04617 36.4213 2.8435 35.632 2.8435 34.736C2.8435 33.6267 3.15283 32.688 3.7715 31.92C4.39017 31.152 5.19017 30.5867 6.1715 30.224C7.17417 29.84 8.2195 29.648 9.3075 29.648C10.0328 29.648 10.7582 29.7227 11.4835 29.872C12.2088 30 12.8168 30.1707 13.3075 30.384C13.4995 30.448 13.6275 30.5333 13.6915 30.64C13.7555 30.7253 13.7875 30.8427 13.7875 30.992L13.8835 35.344C13.8835 35.408 13.8195 35.4613 13.6915 35.504C13.5848 35.5253 13.5208 35.4933 13.4995 35.408C13.0728 34.1067 12.4968 32.9333 11.7715 31.888C11.0675 30.8213 10.0008 30.288 8.5715 30.288C7.6115 30.288 6.8435 30.5653 6.2675 31.12C5.71283 31.6747 5.4355 32.432 5.4355 33.392ZM37.7183 30C37.7823 30 37.8143 30.064 37.8143 30.192C37.8143 30.32 37.7823 30.384 37.7183 30.384C36.9503 30.384 36.2463 30.672 35.6063 31.248C34.9663 31.824 34.4436 32.656 34.0382 33.744L27.8303 49.968C27.8089 50.0533 27.6916 50.096 27.4783 50.096C27.2649 50.096 27.1476 50.0533 27.1263 49.968L19.0303 32.656C18.6463 31.8667 18.2623 31.2907 17.8783 30.928C17.4943 30.5653 17.0356 30.384 16.5023 30.384C16.4383 30.384 16.4062 30.32 16.4062 30.192C16.4062 30.064 16.4383 30 16.5023 30L17.3343 30.032C17.8036 30.0747 18.3369 30.096 18.9343 30.096C20.4276 30.096 21.7716 30.0747 22.9663 30.032C23.3076 30.0107 23.7449 30 24.2783 30C24.3423 30 24.3743 30.064 24.3743 30.192C24.3743 30.32 24.3423 30.384 24.2783 30.384C22.9343 30.384 22.2623 30.8533 22.2623 31.792C22.2623 32.1547 22.3689 32.56 22.5823 33.008L28.5343 45.744L33.2063 33.616C33.3983 33.104 33.4943 32.6453 33.4943 32.24C33.4943 31.6427 33.2916 31.184 32.8863 30.864C32.5023 30.544 31.9156 30.384 31.1263 30.384C31.0623 30.384 31.0303 30.32 31.0303 30.192C31.0303 30.064 31.0623 30 31.1263 30L32.6623 30.032C33.4729 30.0747 34.2196 30.096 34.9023 30.096C35.3076 30.096 35.8089 30.0747 36.4062 30.032L37.7183 30ZM57.3145 49.616C57.4212 49.616 57.4745 49.68 57.4745 49.808C57.4745 49.936 57.4212 50 57.3145 50C56.9092 50 56.2585 49.9787 55.3625 49.936C54.4665 49.8933 53.8158 49.872 53.4105 49.872C52.8772 49.872 52.2478 49.8933 51.5225 49.936C50.7972 49.9787 50.2318 50 49.8265 50C49.7412 50 49.6985 49.936 49.6985 49.808C49.6985 49.68 49.7412 49.616 49.8265 49.616C50.4452 49.616 50.8932 49.552 51.1705 49.424C51.4692 49.2747 51.6185 49.04 51.6185 48.72C51.6185 48.4 51.4372 47.856 51.0745 47.088L47.6185 40.08H41.8265L39.3625 45.616C39.0852 46.256 38.9465 46.832 38.9465 47.344C38.9465 48.0907 39.2132 48.656 39.7465 49.04C40.2798 49.424 41.0265 49.616 41.9865 49.616C42.0932 49.616 42.1465 49.68 42.1465 49.808C42.1465 49.936 42.0932 50 41.9865 50C41.6025 50 41.0478 49.9787 40.3225 49.936C39.5118 49.8933 38.8078 49.872 38.2105 49.872C37.6345 49.872 36.9625 49.8933 36.1945 49.936C35.5118 49.9787 34.9465 50 34.4985 50C34.3918 50 34.3385 49.936 34.3385 49.808C34.3385 49.68 34.3918 49.616 34.4985 49.616C35.0958 49.616 35.5972 49.4987 36.0025 49.264C36.4078 49.0293 36.8025 48.6133 37.1865 48.016C37.5705 47.3973 38.0292 46.4907 38.5625 45.296L45.4425 29.808C45.4852 29.744 45.5812 29.712 45.7305 29.712C45.8798 29.712 45.9652 29.744 45.9865 29.808L53.8265 45.616C54.5732 47.152 55.1918 48.208 55.6825 48.784C56.1945 49.3387 56.7385 49.616 57.3145 49.616ZM42.1785 39.28H47.2345L44.5785 33.904L42.1785 39.28ZM67.4885 50.128C66.8272 50.128 66.0592 50.096 65.1845 50.032C64.8645 50.0107 64.4592 49.9893 63.9685 49.968C63.4778 49.9467 62.9232 49.936 62.3045 49.936L60.0325 49.968C59.6272 49.9893 59.0618 50 58.3365 50C58.2938 50 58.2725 49.936 58.2725 49.808C58.2725 49.68 58.2938 49.616 58.3365 49.616C59.0618 49.616 59.5845 49.5627 59.9045 49.456C60.2458 49.3493 60.4805 49.1467 60.6085 48.848C60.7365 48.528 60.8005 48.048 60.8005 47.408V32.592C60.8005 31.952 60.7365 31.4827 60.6085 31.184C60.5018 30.8853 60.2778 30.6827 59.9365 30.576C59.5952 30.448 59.0725 30.384 58.3685 30.384C58.3258 30.384 58.3045 30.32 58.3045 30.192C58.3045 30.064 58.3258 30 58.3685 30L60.0645 30.032C61.0032 30.0747 61.7498 30.096 62.3045 30.096C63.1578 30.096 64.0218 30.064 64.8965 30C65.9632 29.9573 66.6778 29.936 67.0405 29.936C69.2165 29.936 71.1472 30.3627 72.8325 31.216C74.5178 32.0693 75.8192 33.232 76.7365 34.704C77.6752 36.176 78.1445 37.8293 78.1445 39.664C78.1445 41.7333 77.6645 43.568 76.7045 45.168C75.7445 46.7467 74.4538 47.9733 72.8325 48.848C71.2112 49.7013 69.4298 50.128 67.4885 50.128ZM67.1685 49.488C68.6405 49.488 69.9418 49.136 71.0725 48.432C72.2245 47.728 73.1205 46.6933 73.7605 45.328C74.4005 43.9413 74.7205 42.288 74.7205 40.368C74.7205 38.5333 74.4112 36.88 73.7925 35.408C73.1952 33.9147 72.3418 32.7413 71.2325 31.888C70.1232 31.0133 68.8325 30.576 67.3605 30.576C66.4645 30.576 65.7712 30.6293 65.2805 30.736C64.7898 30.8427 64.4272 31.0453 64.1925 31.344C63.9792 31.6213 63.8725 32.0587 63.8725 32.656V47.056C63.8725 47.9307 64.0965 48.56 64.5445 48.944C64.9925 49.3067 65.8672 49.488 67.1685 49.488ZM95.3668 45.008C95.3668 44.9653 95.4094 44.944 95.4948 44.944C95.5588 44.944 95.6121 44.9653 95.6548 45.008C95.7188 45.0293 95.7508 45.0507 95.7508 45.072C95.5374 46.6933 95.4308 48.176 95.4308 49.52C95.4308 49.6907 95.3988 49.8187 95.3348 49.904C95.2708 49.968 95.1428 50 94.9508 50H81.0628C80.9988 50 80.9668 49.936 80.9668 49.808C80.9668 49.68 80.9988 49.616 81.0628 49.616C81.7881 49.616 82.3108 49.5627 82.6308 49.456C82.9721 49.3493 83.1961 49.1467 83.3028 48.848C83.4308 48.528 83.4948 48.048 83.4948 47.408V32.592C83.4948 31.952 83.4308 31.4827 83.3028 31.184C83.1961 30.8853 82.9721 30.6827 82.6308 30.576C82.2894 30.448 81.7668 30.384 81.0628 30.384C80.9988 30.384 80.9668 30.32 80.9668 30.192C80.9668 30.064 80.9988 30 81.0628 30H94.3748C94.5881 30 94.6948 30.096 94.6948 30.288L94.7588 34.448C94.7588 34.4907 94.6948 34.5227 94.5668 34.544C94.4601 34.5653 94.3961 34.544 94.3748 34.48C93.8628 32.048 92.3801 30.832 89.9268 30.832H88.6468C87.8788 30.832 87.3348 30.9707 87.0148 31.248C86.6948 31.5253 86.5348 31.9947 86.5348 32.656V39.184H89.6068C91.9534 39.184 93.1268 38.3947 93.1268 36.816C93.1268 36.752 93.1801 36.72 93.2868 36.72C93.4148 36.72 93.4788 36.752 93.4788 36.816L93.4468 39.6L93.4788 41.104C93.5214 41.7867 93.5428 42.3413 93.5428 42.768C93.5428 42.8107 93.4788 42.832 93.3508 42.832C93.2228 42.832 93.1588 42.8107 93.1588 42.768C93.1588 40.9333 91.9641 40.016 89.5748 40.016H86.5348V47.28C86.5348 47.984 86.6628 48.4747 86.9188 48.752C87.1961 49.0293 87.6761 49.168 88.3588 49.168H89.9268C92.7854 49.168 94.5988 47.7813 95.3668 45.008ZM108.451 38.768C110.2 38.96 111.597 39.5467 112.643 40.528C113.688 41.5093 114.211 42.7253 114.211 44.176C114.211 45.2853 113.901 46.2987 113.283 47.216C112.685 48.112 111.843 48.8267 110.755 49.36C109.688 49.872 108.493 50.128 107.171 50.128C106.552 50.128 105.837 50.096 105.027 50.032C104.749 50.0107 104.397 49.9893 103.971 49.968C103.544 49.9467 103.064 49.936 102.531 49.936L100.227 49.968C99.8214 49.9893 99.2668 50 98.5628 50C98.4988 50 98.4668 49.936 98.4668 49.808C98.4668 49.68 98.4988 49.616 98.5628 49.616C99.2454 49.616 99.7574 49.5627 100.099 49.456C100.44 49.328 100.675 49.1147 100.803 48.816C100.952 48.5173 101.027 48.048 101.027 47.408V32.592C101.027 31.9733 100.952 31.5147 100.803 31.216C100.675 30.896 100.44 30.6827 100.099 30.576C99.7788 30.448 99.2774 30.384 98.5948 30.384C98.5521 30.384 98.5308 30.32 98.5308 30.192C98.5308 30.064 98.5521 30 98.5948 30L100.259 30.032C101.197 30.0747 101.955 30.096 102.531 30.096C103.128 30.096 103.757 30.064 104.419 30C104.653 29.9787 104.931 29.9573 105.251 29.936C105.592 29.9147 105.976 29.904 106.403 29.904C108.301 29.904 109.752 30.2773 110.755 31.024C111.779 31.7493 112.291 32.7627 112.291 34.064C112.291 35.0667 111.949 35.984 111.267 36.816C110.605 37.648 109.667 38.2987 108.451 38.768ZM105.859 30.544C105.176 30.544 104.707 30.6827 104.451 30.96C104.216 31.2373 104.099 31.8027 104.099 32.656V38.736L105.443 38.768C106.701 38.768 107.651 38.3627 108.291 37.552C108.931 36.72 109.251 35.6533 109.251 34.352C109.251 33.136 108.963 32.1973 108.387 31.536C107.811 30.8747 106.968 30.544 105.859 30.544ZM106.659 49.392C109.539 49.392 110.979 47.9093 110.979 44.944C110.979 43.3227 110.552 42.0213 109.699 41.04C108.867 40.0587 107.64 39.568 106.019 39.568C105.251 39.568 104.611 39.5893 104.099 39.632V47.408C104.099 47.8987 104.163 48.2827 104.291 48.56C104.419 48.8373 104.664 49.0507 105.027 49.2C105.389 49.328 105.933 49.392 106.659 49.392ZM138.819 30C138.862 30 138.883 30.064 138.883 30.192C138.883 30.32 138.862 30.384 138.819 30.384C137.966 30.384 137.304 30.6933 136.835 31.312C136.366 31.9093 136.131 32.7733 136.131 33.904V50.448C136.131 50.512 136.078 50.5547 135.971 50.576C135.864 50.5973 135.79 50.5867 135.747 50.544L120.739 33.104V46.128C120.739 47.2587 120.963 48.1227 121.411 48.72C121.859 49.3173 122.51 49.616 123.363 49.616C123.406 49.616 123.427 49.68 123.427 49.808C123.427 49.936 123.406 50 123.363 50C122.787 50 122.35 49.9893 122.051 49.968L120.355 49.936L118.467 49.968C118.126 49.9893 117.635 50 116.995 50C116.931 50 116.899 49.936 116.899 49.808C116.899 49.68 116.931 49.616 116.995 49.616C117.912 49.616 118.616 49.3173 119.107 48.72C119.619 48.1227 119.875 47.2587 119.875 46.128V32.112C119.278 31.472 118.734 31.024 118.243 30.768C117.774 30.512 117.283 30.384 116.771 30.384C116.728 30.384 116.707 30.32 116.707 30.192C116.707 30.064 116.728 30 116.771 30L118.051 30.032C118.328 30.0533 118.723 30.064 119.235 30.064L121.283 30.032C121.539 30.0107 121.848 30 122.211 30C122.382 30 122.51 30.0427 122.595 30.128C122.68 30.2133 122.808 30.384 122.979 30.64C123.342 31.1307 123.608 31.472 123.779 31.664L135.267 45.232V33.904C135.267 32.7733 135.043 31.9093 134.595 31.312C134.147 30.6933 133.507 30.384 132.675 30.384C132.632 30.384 132.611 30.32 132.611 30.192C132.611 30.064 132.632 30 132.675 30L133.987 30.032C134.67 30.0747 135.235 30.096 135.683 30.096C136.11 30.096 136.686 30.0747 137.411 30.032L138.819 30ZM151.025 50.384C149.041 50.384 147.27 49.9253 145.713 49.008C144.177 48.0693 142.982 46.8107 142.129 45.232C141.297 43.632 140.881 41.8933 140.881 40.016C140.881 37.8187 141.435 35.9413 142.545 34.384C143.654 32.8053 145.073 31.6213 146.801 30.832C148.55 30.0427 150.331 29.648 152.145 29.648C154.171 29.648 155.953 30.128 157.489 31.088C159.025 32.0267 160.198 33.2747 161.009 34.832C161.841 36.3893 162.257 38.0427 162.257 39.792C162.257 41.7333 161.745 43.5147 160.721 45.136C159.697 46.7573 158.321 48.0373 156.593 48.976C154.886 49.9147 153.03 50.384 151.025 50.384ZM152.113 49.616C153.393 49.616 154.534 49.2747 155.537 48.592C156.561 47.888 157.361 46.864 157.937 45.52C158.534 44.176 158.833 42.576 158.833 40.72C158.833 38.7573 158.502 36.9973 157.841 35.44C157.201 33.8827 156.273 32.6667 155.057 31.792C153.862 30.9173 152.454 30.48 150.833 30.48C148.763 30.48 147.153 31.2267 146.001 32.72C144.87 34.192 144.305 36.24 144.305 38.864C144.305 40.8907 144.635 42.7253 145.297 44.368C145.979 46.0107 146.907 47.3013 148.081 48.24C149.275 49.1573 150.619 49.616 152.113 49.616Z" fill="black"/>
<path d="M27.4061 69.3236C27.3668 68.8244 27.4616 68.2739 27.6904 67.6721C27.9329 67.0693 28.1961 66.4648 28.4798 65.8587C28.7762 65.2381 29.0393 64.6336 29.2692 64.0453C29.5128 63.456 29.6155 62.9184 29.5773 62.4327C29.5624 62.2438 29.5006 62.0722 29.3918 61.9178C29.2957 61.7489 29.1863 61.5878 29.0638 61.4345C28.954 61.2667 28.8515 61.105 28.7564 60.9496C28.6603 60.7807 28.6043 60.595 28.5884 60.3926C28.5703 60.1633 28.642 59.9336 28.8034 59.7037C28.9786 59.4727 29.1828 59.348 29.4161 59.3297C29.4256 59.4511 29.4441 59.599 29.4717 59.7733C29.4981 59.9341 29.5383 60.0939 29.5922 60.2526C29.6598 60.4102 29.747 60.5526 29.8537 60.68C29.9593 60.7939 30.0965 60.8713 30.2654 60.9124C30.374 60.5373 30.5427 60.0488 30.7715 59.4471C31.013 58.8307 31.2999 58.1769 31.6321 57.4855C31.977 56.7796 32.3499 56.0783 32.7507 55.3815C33.1643 54.6702 33.5899 54.0258 34.0278 53.4483C34.4794 52.8697 34.9389 52.3924 35.4064 52.0162C35.8739 51.64 36.3272 51.4347 36.7663 51.4001C37.0957 51.3742 37.3823 51.4196 37.6262 51.5361C37.8838 51.6516 38.0971 51.8181 38.2661 52.0356C38.434 52.2396 38.5635 52.4806 38.6544 52.7586C38.7453 53.0365 38.8024 53.3239 38.8257 53.6207C38.9117 54.7136 38.7522 55.758 38.3473 56.7537C37.955 57.7349 37.3964 58.6205 36.6715 59.4106C35.9593 60.1862 35.1272 60.8422 34.1752 61.3787C33.2222 61.9016 32.2279 62.2514 31.1924 62.4278L30.6987 63.2609L28.7646 69.2167C28.6729 69.4547 28.5679 69.6123 28.4497 69.6895C28.3452 69.7656 28.2038 69.8107 28.0254 69.8247C27.6412 69.8549 27.4347 69.6879 27.4061 69.3236ZM36.6022 52.7367C36.218 52.7669 35.8311 52.9399 35.4417 53.2556C35.065 53.5568 34.6952 53.9456 34.3322 54.4222C33.9693 54.8987 33.6312 55.4277 33.3179 56.0089C33.0046 56.5902 32.7325 57.1682 32.5015 57.743C32.2695 58.3043 32.0903 58.8342 31.9638 59.3329C31.8511 59.8305 31.8069 60.2345 31.8313 60.5448C31.8335 60.5718 31.8398 60.6528 31.8504 60.7877C31.8748 60.9215 31.8885 61.0087 31.8917 61.0492C32.7531 60.9407 33.5447 60.6476 34.2665 60.17C34.9873 59.6789 35.5962 59.0812 36.0931 58.3768C36.59 57.6725 36.9644 56.9032 37.2164 56.0688C37.4673 55.221 37.5609 54.3922 37.4972 53.5827C37.4675 53.2049 37.4072 52.9653 37.3164 52.8638C37.2245 52.7489 36.9864 52.7065 36.6022 52.7367Z" fill="url(#paint0_linear)"/>
<path d="M44.5579 68.5243C44.219 68.6053 43.8992 68.5761 43.5983 68.4369C43.31 68.2831 43.0729 68.0777 42.887 67.8208C42.7001 67.5504 42.5801 67.2544 42.5272 66.9327C42.4732 66.5976 42.518 66.2886 42.6614 66.0058C43.2047 65.1892 43.5687 64.5497 43.7532 64.0872C43.9367 63.6111 43.9872 63.2881 43.9048 63.1181C43.8351 62.9336 43.6577 62.8728 43.3727 62.936C43.1004 62.9846 42.7737 63.1324 42.3927 63.3796C42.0107 63.6133 41.5996 63.9172 41.1596 64.2912C40.7333 64.6641 40.337 65.0686 39.9709 65.5047C39.6048 65.9408 39.2883 66.3933 39.0214 66.8623C38.7672 67.3167 38.6154 67.7563 38.5659 68.1811C38.4351 68.2728 38.3237 68.3494 38.2319 68.411C38.139 68.459 38.0308 68.4879 37.9073 68.4976C37.7015 68.5138 37.5727 68.456 37.5209 68.3243C37.4691 68.1927 37.4374 68.0526 37.4257 67.9042C37.3992 67.5669 37.475 67.2147 37.6533 66.8477C37.8442 66.4662 38.0647 66.1094 38.3147 65.7775C38.5774 65.431 38.8291 65.1193 39.0696 64.8425C39.3092 64.5521 39.4774 64.3217 39.5745 64.1511C39.874 63.5709 40.1704 62.9503 40.4636 62.2892C40.7557 61.6145 41.0473 60.9332 41.3384 60.245C41.6284 59.5434 41.9263 58.8548 42.2322 58.1791C42.5507 57.4888 42.8856 56.8312 43.2369 56.2062C43.297 56.0929 43.346 56.0143 43.384 55.9706C43.4357 55.9258 43.5096 55.8996 43.6057 55.8921C43.7155 55.8834 43.7994 55.8972 43.8575 55.9334C43.9155 55.9695 43.9763 56.0394 44.0397 56.143C44.0439 56.197 44.0371 56.2858 44.0192 56.4094C44.015 56.5319 44.005 56.6684 43.9893 56.819C43.9862 56.955 43.9688 57.0854 43.9372 57.21C43.9193 57.3336 43.9051 57.4162 43.8945 57.4578C43.8249 57.6261 43.71 57.9203 43.5497 58.3402C43.3894 58.7601 43.2107 59.2085 43.0135 59.6856C42.83 60.1617 42.6528 60.6304 42.482 61.0918C42.3101 61.5398 42.1847 61.8755 42.1056 62.0989C42.3008 61.9478 42.4781 61.832 42.6375 61.7516C42.7958 61.6577 42.9493 61.5913 43.0982 61.5525C43.2597 61.499 43.4227 61.4658 43.5874 61.4529C43.7648 61.4254 43.9563 61.4035 44.1622 61.3873C44.6658 61.4699 45.0026 61.6267 45.1726 61.8577C45.3564 62.0876 45.4267 62.3671 45.3836 62.6964C45.3531 63.011 45.2498 63.3653 45.0737 63.7593C44.8975 64.1533 44.7082 64.5551 44.5057 64.9647C44.3159 65.3598 44.1461 65.7465 43.9963 66.1248C43.8455 66.4896 43.7886 66.8199 43.8257 67.1157C43.8353 67.2371 43.8696 67.3227 43.9288 67.3723C43.9879 67.422 44.0597 67.4571 44.1441 67.4776C44.2286 67.4981 44.3189 67.5045 44.4149 67.497C44.511 67.4894 44.6002 67.4824 44.6825 67.4759C44.9707 67.4533 45.242 67.3912 45.4963 67.2897C45.7634 67.1737 46.023 67.0515 46.2752 66.923C46.5275 66.7946 46.7808 66.6796 47.0352 66.5782C47.3022 66.4621 47.5798 66.3928 47.868 66.3701C47.8881 66.6265 47.7769 66.8796 47.5342 67.1295C47.2915 67.3793 46.9918 67.6066 46.6351 67.8111C46.291 68.0011 45.9242 68.1657 45.5348 68.3049C45.1442 68.4307 44.8186 68.5038 44.5579 68.5243Z" fill="url(#paint1_linear)"/>
<path d="M49.1396 66.433C49.1354 66.379 49.1269 66.2711 49.1142 66.1092C49.1141 65.9327 49.1119 65.8175 49.1077 65.7635C49.4693 64.744 49.9603 63.789 50.5807 62.8985C51.201 62.008 51.918 61.2049 52.7316 60.4893C52.759 60.4871 52.7997 60.4771 52.8535 60.4593C52.92 60.4269 52.967 60.4097 52.9944 60.4075C53.3649 60.3784 53.6732 60.4356 53.9192 60.5791C54.1779 60.7081 54.386 60.8954 54.5433 61.141C54.7134 61.372 54.8381 61.6405 54.9174 61.9465C54.9956 62.239 55.0459 62.5269 55.0682 62.8103C55.1096 63.3365 55.0296 63.8994 54.8282 64.499C54.6258 65.0851 54.3309 65.6377 53.9437 66.1569C53.5692 66.6616 53.1265 67.0901 52.6157 67.4425C52.1039 67.7814 51.5598 67.9736 50.9834 68.0189C50.4071 68.0642 49.9631 67.9498 49.6516 67.6756C49.3527 67.3869 49.1821 66.9727 49.1396 66.433ZM50.7261 66.0638C50.7378 66.2123 50.8075 66.3086 50.9352 66.3528C51.063 66.3971 51.1886 66.4144 51.3121 66.4047C51.6552 66.3777 51.9777 66.2641 52.2795 66.0638C52.594 65.849 52.8641 65.597 53.0899 65.3077C53.3283 65.0039 53.5098 64.6773 53.6342 64.3282C53.7586 63.979 53.8086 63.6492 53.7842 63.3389C53.7725 63.1905 53.7461 63.0296 53.7048 62.8564C53.6763 62.6686 53.6223 62.5099 53.5431 62.3804C53.4628 62.2374 53.344 62.1313 53.1867 62.0622C53.0431 61.9921 52.8431 61.9942 52.5866 62.0687C52.3976 62.1243 52.1919 62.317 51.9693 62.6467C51.7467 62.9765 51.5352 63.3597 51.3348 63.7963C51.1471 64.2183 50.9942 64.6444 50.8761 65.0746C50.757 65.4912 50.707 65.821 50.7261 66.0638Z" fill="url(#paint2_linear)"/>
<path d="M57.8294 65.4848C57.7986 65.0935 57.8433 64.6963 57.9635 64.2931C58.0836 63.8899 58.2318 63.4914 58.4079 63.0974C58.583 62.6899 58.7586 62.2892 58.9347 61.8952C59.1246 61.5001 59.2601 61.1161 59.3412 60.7432C59.0921 60.9121 58.8726 61.0177 58.6826 61.0597C58.5053 61.0873 58.2862 61.1113 58.0255 61.1318C57.998 61.134 57.9088 61.141 57.7579 61.1528C57.6196 61.1501 57.5299 61.1504 57.4887 61.1537C57.5477 60.8503 57.678 60.5754 57.8795 60.3287C58.0799 60.0686 58.311 59.8468 58.5728 59.6633C58.8471 59.4652 59.131 59.3003 59.4244 59.1686C59.7305 59.0224 60.0044 58.9058 60.2461 58.8189C60.6079 58.1524 60.8942 57.4918 61.1051 56.8371C61.3149 56.169 61.5263 55.5211 61.7393 54.8934C61.9649 54.2512 62.2344 53.6394 62.5476 53.0582C62.8736 52.4623 63.3267 51.904 63.9071 51.3832L64.0705 52.1442L61.9639 58.2765C62.1117 58.2242 62.2938 58.1691 62.5102 58.1114C62.7265 58.0536 62.9429 57.9959 63.1593 57.9381C63.3894 57.8793 63.6063 57.8283 63.81 57.7851C64.0264 57.7274 64.2085 57.6723 64.3563 57.62C64.37 57.6189 64.4112 57.6157 64.4798 57.6103C64.5473 57.5914 64.6017 57.5803 64.6429 57.5771C64.835 57.562 64.9954 57.5833 65.1242 57.641C65.2531 57.6988 65.3677 57.8391 65.468 58.062C64.5561 58.4052 63.7344 58.755 63.003 59.1112C62.2716 59.4674 61.6437 59.9105 61.1193 60.4404C60.6075 60.9559 60.2024 61.5986 59.904 62.3688C59.6182 63.1244 59.4518 64.081 59.4048 65.2387C59.4239 65.4815 59.4551 65.7031 59.4985 65.9033C59.5419 66.1035 59.723 66.2115 60.0418 66.2271C60.3574 66.2023 60.6477 66.1184 60.9126 65.9753C61.1775 65.8323 61.435 65.6831 61.6851 65.5277C61.9342 65.3587 62.1843 65.2033 62.4355 65.0614C62.7004 64.9183 62.9906 64.8344 63.3063 64.8096C63.3317 65.1334 63.211 65.4416 62.944 65.7341C62.6771 66.0266 62.3457 66.2903 61.95 66.525C61.5679 66.7587 61.1684 66.9463 60.7515 67.0877C60.3346 67.2291 59.9889 67.3106 59.7145 67.3321C59.44 67.3537 59.1887 67.3192 58.9607 67.2285C58.7326 67.1379 58.5362 67.0108 58.3715 66.8472C58.2194 66.6691 58.0926 66.4619 57.9912 66.2255C57.9035 65.988 57.8495 65.7411 57.8294 65.4848Z" fill="url(#paint3_linear)"/>
<path d="M65.4284 65.1518C65.4241 65.0978 65.4156 64.9899 65.4029 64.828C65.4028 64.6515 65.4007 64.5362 65.3964 64.4823C65.7581 63.4628 66.2491 62.5078 66.8694 61.6173C67.4898 60.7268 68.2067 59.9237 69.0203 59.2081C69.0478 59.2059 69.0884 59.1959 69.1422 59.1781C69.2087 59.1457 69.2557 59.1285 69.2832 59.1263C69.6537 59.0971 69.9619 59.1544 70.208 59.2979C70.4666 59.4269 70.6747 59.6142 70.8321 59.8597C71.0021 60.0907 71.1268 60.3592 71.2061 60.6652C71.2844 60.9578 71.3346 61.2457 71.3569 61.529C71.3983 62.0552 71.3183 62.6182 71.1169 63.2178C70.9145 63.8039 70.6197 64.3565 70.2325 64.8757C69.8579 65.3803 69.4153 65.8089 68.9045 66.1613C68.3926 66.5002 67.8485 66.6924 67.2722 66.7377C66.6958 66.783 66.2519 66.6686 65.9403 66.3944C65.6415 66.1057 65.4708 65.6915 65.4284 65.1518ZM67.0148 64.7826C67.0265 64.931 67.0962 65.0274 67.224 65.0716C67.3517 65.1159 67.4774 65.1332 67.6009 65.1234C67.9439 65.0965 68.2664 64.9829 68.5682 64.7826C68.8827 64.5678 69.1528 64.3158 69.3786 64.0265C69.6171 63.7227 69.7985 63.3961 69.9229 63.0469C70.0473 62.6978 70.0973 62.368 70.0729 62.0577C70.0613 61.9093 70.0348 61.7484 69.9936 61.5752C69.965 61.3874 69.9111 61.2287 69.8319 61.0992C69.7516 60.9561 69.6328 60.8501 69.4754 60.781C69.3318 60.7109 69.1318 60.713 68.8753 60.7875C68.6864 60.8431 68.4806 61.0358 68.258 61.3655C68.0354 61.6953 67.8239 62.0785 67.6235 62.5151C67.4358 62.9371 67.2829 63.3632 67.1649 63.7933C67.0457 64.21 66.9957 64.5398 67.0148 64.7826Z" fill="url(#paint4_linear)"/>
<path d="M77.956 63.2297C77.6256 63.2421 77.2371 63.2183 76.7905 63.1584C76.3577 63.0974 75.9349 62.9881 75.5221 62.8305C75.1219 62.6584 74.7724 62.4279 74.4735 62.1392C74.1884 61.8494 74.0283 61.4818 73.9933 61.0366C73.9742 60.7937 74.0216 60.6067 74.1356 60.4756C74.2484 60.3309 74.392 60.2246 74.5661 60.1566C74.754 60.0875 74.9509 60.0449 75.1567 60.0287C75.3752 59.9979 75.5668 59.9761 75.7315 59.9631C76.198 59.9264 76.5643 59.9315 76.8304 59.9785C77.1091 60.0109 77.3213 60.0756 77.467 60.1728C77.6127 60.2699 77.7183 60.3838 77.7839 60.5144C77.8494 60.645 77.9228 60.7886 78.0041 60.9451C78.0855 61.1016 78.1874 61.2565 78.3099 61.4098C78.4462 61.562 78.6505 61.702 78.9229 61.8299C79.1055 61.6934 79.2727 61.4495 79.4246 61.0981C79.5901 60.7457 79.7388 60.3539 79.8706 59.9226C80.015 59.4768 80.1515 59.0181 80.2801 58.5464C80.4077 58.0612 80.5389 57.6232 80.6739 57.2325C80.8078 56.8283 80.9406 56.4988 81.0725 56.244C81.2033 55.9758 81.351 55.8352 81.5157 55.8223C81.6529 55.8115 81.759 55.8439 81.834 55.9194C81.9079 55.9815 81.956 56.0659 81.9782 56.1728C82.0141 56.2786 82.03 56.3927 82.0258 56.5152C82.0343 56.6232 82.0418 56.7176 82.0481 56.7986C82.0534 56.866 82.0551 56.9745 82.053 57.124C82.0647 57.2724 82.0647 57.3607 82.0531 57.3887L80.4887 61.1977L80.5062 61.4203C80.9728 61.3836 81.4298 61.2255 81.8773 60.9459C82.3237 60.6529 82.7411 60.3417 83.1294 60.0125C83.5167 59.6698 83.8649 59.3573 84.1741 59.075C84.497 58.7917 84.7614 58.6419 84.9672 58.6257C85.0012 59.0575 84.9079 59.4518 84.6874 59.8085C84.4669 60.1652 84.1752 60.4936 83.8122 60.7937C83.4618 61.0792 83.0751 61.3404 82.6518 61.5774C82.2286 61.8143 81.8244 62.0294 81.4392 62.2226C81.0666 62.4012 80.7479 62.562 80.483 62.7051C80.2307 62.8335 80.0951 62.9528 80.0762 63.0629L79.5009 65.7555C79.502 65.7689 79.4682 65.7784 79.3996 65.7838C79.3447 65.7881 79.3035 65.7913 79.2761 65.7935C79.2075 65.7989 79.1104 65.793 78.9847 65.7757C78.8591 65.7584 78.7329 65.7344 78.6063 65.7036C78.4785 65.6594 78.3639 65.6073 78.2626 65.5474C78.1749 65.4864 78.1279 65.4154 78.1216 65.3345L77.956 63.2297ZM75.2521 60.9783C75.2701 61.2077 75.3742 61.3895 75.5643 61.5239C75.767 61.6437 75.9951 61.7344 76.2484 61.7959C76.5018 61.8575 76.7536 61.8987 77.0038 61.9198C77.2677 61.9398 77.4614 61.9449 77.5849 61.9352C77.5839 61.9217 77.5823 61.9014 77.5802 61.8745C77.5918 61.8464 77.597 61.8256 77.596 61.8121C77.5779 61.5828 77.4675 61.4082 77.2648 61.2883C77.0621 61.1685 76.8277 61.0852 76.5616 61.0382C76.3093 60.9902 76.0591 60.9691 75.8111 60.9751C75.5619 60.9675 75.3756 60.9686 75.2521 60.9783Z" fill="url(#paint5_linear)"/>
<path d="M88.6847 64.7684C88.6826 64.7414 88.6783 64.6874 88.6719 64.6064C88.6645 64.512 88.6502 64.4181 88.6291 64.3247C88.6216 64.2303 88.6147 64.1426 88.6084 64.0616C88.601 63.9672 88.5956 63.8997 88.5925 63.8592C88.5447 63.2521 88.5392 62.6552 88.5759 62.0685C88.6252 61.4673 88.6751 60.8728 88.7256 60.2851C88.7887 59.6828 88.8385 59.0883 88.8752 58.5016C88.9246 57.9004 88.9254 57.2962 88.8777 56.689C88.8734 56.6351 88.8649 56.5271 88.8522 56.3652C88.8395 56.2033 88.8262 56.0347 88.8124 55.8593C88.7975 55.6704 88.7769 55.4955 88.7504 55.3347C88.7377 55.1728 88.7287 55.0581 88.7234 54.9906C88.6304 54.8622 88.4995 54.7774 88.3306 54.7364C88.1754 54.6943 88.0202 54.6522 87.865 54.6101C87.7098 54.568 87.5672 54.5114 87.4374 54.4401C87.3212 54.3678 87.2562 54.2439 87.2424 54.0685C87.2329 53.9471 87.2598 53.8499 87.3231 53.7771C87.3853 53.6907 87.4629 53.6235 87.5558 53.5755C87.6624 53.5264 87.7705 53.4975 87.8803 53.4889C88.0028 53.4657 88.1189 53.4498 88.2287 53.4411C88.8874 53.3893 89.3978 53.5596 89.7601 53.952C90.1223 54.3443 90.3289 54.8643 90.3799 55.512C90.4276 56.1191 90.42 56.7239 90.3569 57.3262C90.2927 57.915 90.2149 58.5049 90.1233 59.0958C90.0317 59.6868 89.9543 60.2834 89.8912 60.8858C89.8271 61.4746 89.8189 62.0726 89.8667 62.6797L89.8794 62.8416C89.93 62.7833 90.0123 62.6886 90.1263 62.5575C90.254 62.4252 90.3811 62.2863 90.5077 62.1406C90.647 61.9803 90.7736 61.8345 90.8876 61.7034C91.0005 61.5588 91.0754 61.4578 91.1123 61.4006C91.797 60.4508 92.4031 59.4663 92.9305 58.4474C93.4568 57.4149 93.9383 56.4268 94.3749 55.4828C94.8116 54.5389 95.2192 53.6651 95.5978 52.8615C95.9754 52.0444 96.3636 51.3622 96.7624 50.8149C97.1612 50.2677 97.5875 49.8948 98.0414 49.6962C98.4941 49.4841 99.0141 49.511 99.6011 49.7771C99.6138 49.939 99.5616 50.0653 99.4445 50.156C99.34 50.2321 99.2139 50.2963 99.0661 50.3487C98.9184 50.401 98.7711 50.4601 98.6244 50.5259C98.4767 50.5783 98.3732 50.6679 98.3142 50.7947C97.1909 53.191 95.9626 55.5684 94.6293 57.9269C93.3086 60.2708 91.8623 62.5092 90.2903 64.6421C90.1489 64.7754 90.0249 64.8666 89.9183 64.9157C89.8106 64.9513 89.6744 64.9756 89.5098 64.9886C89.3451 65.0015 89.2068 64.9988 89.0949 64.9805C88.9819 64.9486 88.8452 64.8779 88.6847 64.7684Z" fill="url(#paint6_linear)"/>
<path d="M97.3535 63.0276C97.3387 62.8387 97.3465 62.6751 97.3771 62.537C97.4066 62.3853 97.4672 62.1905 97.5589 61.9525C97.6444 61.81 97.7957 61.5402 98.013 61.1429C98.244 60.7446 98.4803 60.3256 98.7219 59.8857C98.9772 59.4448 99.214 59.0324 99.4323 58.6487C99.6634 58.2504 99.8211 57.9733 99.9055 57.8173C100.015 57.6322 100.104 57.5302 100.171 57.5113C100.239 57.4924 100.369 57.4754 100.561 57.4603C100.684 57.4506 100.815 57.4471 100.954 57.4498C101.106 57.4514 101.209 57.5383 101.264 57.7104C101.108 58.1843 100.882 58.6433 100.585 59.0875C100.301 59.5171 100.018 59.9467 99.7339 60.3763C99.4639 60.8048 99.2292 61.2441 99.0298 61.6942C98.8294 62.1309 98.7483 62.592 98.7866 63.0778C98.8414 63.0734 98.9243 63.0737 99.0352 63.0786C99.1597 63.0824 99.2912 63.0856 99.4294 63.0883C99.5677 63.091 99.6923 63.0948 99.8031 63.0996C99.9277 63.1034 100.017 63.0964 100.071 63.0786C100.152 63.0586 100.287 63.0208 100.476 62.9652C100.678 62.8951 100.886 62.8244 101.101 62.7531C101.33 62.6808 101.546 62.6096 101.747 62.5394C101.949 62.4693 102.09 62.4174 102.17 62.384C102.172 62.411 102.176 62.4582 102.181 62.5257C102.199 62.5785 102.209 62.6185 102.211 62.6455C102.233 62.9153 102.12 63.1482 101.873 63.3441C101.64 63.5389 101.356 63.7038 101.021 63.8387C100.699 63.9591 100.361 64.0535 100.008 64.1221C99.6669 64.1761 99.4004 64.2106 99.2082 64.2257C99.0024 64.2419 98.7881 64.2384 98.5653 64.2152C98.3553 64.1774 98.1636 64.111 97.9905 64.016C97.8173 63.921 97.6695 63.7969 97.547 63.6436C97.4371 63.4758 97.3726 63.2704 97.3535 63.0276ZM102.411 50.6965C102.589 50.6825 102.754 50.6763 102.906 50.6779C103.058 50.6795 103.191 50.703 103.305 50.7483C103.419 50.7936 103.515 50.8676 103.592 50.9701C103.669 51.0727 103.715 51.2184 103.73 51.4073C103.736 51.4882 103.743 51.5759 103.751 51.6704C103.758 51.7648 103.752 51.8604 103.732 51.957C103.724 52.039 103.696 52.1159 103.646 52.1877C103.596 52.246 103.509 52.28 103.385 52.2897C103.193 52.3048 103.03 52.2498 102.896 52.1245C102.775 51.9983 102.681 51.8496 102.612 51.6785C102.542 51.4939 102.493 51.3077 102.465 51.1199C102.436 50.9321 102.418 50.7909 102.411 50.6965Z" fill="url(#paint7_linear)"/>
<path d="M104.219 61.7952C104.166 61.1206 104.306 60.4443 104.639 59.7664C104.986 59.0875 105.442 58.4747 106.007 57.928C106.571 57.3812 107.205 56.9309 107.909 56.5768C108.612 56.2093 109.293 55.9996 109.952 55.9478C110.213 55.9273 110.463 55.9551 110.704 56.0312C110.945 56.1073 111.195 56.1351 111.456 56.1146L111.58 56.1049C111.637 55.951 111.746 55.6777 111.909 55.2848C112.085 54.8908 112.266 54.476 112.453 54.0405C112.653 53.6039 112.842 53.1953 113.019 52.8148C113.195 52.4209 113.326 52.1459 113.41 51.9899C113.541 51.7217 113.722 51.3884 113.953 50.9901C114.183 50.5783 114.407 50.1806 114.625 49.7968C114.857 49.412 115.059 49.0839 115.231 48.8124C115.403 48.541 115.503 48.4041 115.53 48.402L116.395 49.1282C116.397 49.1551 116.352 49.2809 116.259 49.5054C116.18 49.7288 116.072 50.0224 115.935 50.3862C115.797 50.7365 115.634 51.1294 115.448 51.5649C115.275 51.9994 115.095 52.4344 114.908 52.8699C114.722 53.3054 114.541 53.7269 114.366 54.1344C114.203 54.5273 114.057 54.8579 113.926 55.1261C113.55 55.7937 113.169 56.4754 112.782 57.171C112.408 57.8521 112.112 58.4863 111.896 59.0735C111.693 59.6461 111.607 60.1415 111.64 60.5598C111.687 60.977 111.943 61.2487 112.408 61.375C113.22 61.1619 113.833 61.0526 114.247 61.0472C114.661 61.0418 114.92 61.096 115.026 61.2099C115.144 61.3092 115.141 61.4452 115.016 61.6179C114.891 61.7771 114.682 61.9293 114.39 62.0745C114.111 62.2186 113.781 62.326 113.4 62.3967C113.019 62.4674 112.632 62.4571 112.238 62.3659C111.844 62.2747 111.477 62.0796 111.136 61.7806C110.794 61.4816 110.518 61.035 110.305 60.4408L107.32 63.3026C107.32 63.3026 107.266 63.3204 107.159 63.356C107.065 63.3905 106.943 63.4272 106.794 63.4661C106.659 63.5039 106.517 63.5422 106.368 63.5811C106.22 63.6199 106.098 63.6499 106.003 63.6709L105.879 63.6806C105.564 63.7055 105.299 63.672 105.084 63.5802C104.883 63.4739 104.72 63.3374 104.596 63.1706C104.472 62.9903 104.379 62.7804 104.319 62.5408C104.273 62.3001 104.239 62.0515 104.219 61.7952ZM105.539 61.4673C105.546 61.5483 105.546 61.6433 105.541 61.7523C105.55 61.8602 105.564 61.9609 105.586 62.0542C105.619 62.133 105.666 62.204 105.727 62.2672C105.801 62.3292 105.899 62.3554 106.023 62.3457C106.201 62.3316 106.409 62.2542 106.647 62.1133C106.897 61.9579 107.138 61.7828 107.372 61.5879C107.605 61.3931 107.817 61.1999 108.009 61.0083C108.215 60.8156 108.363 60.675 108.453 60.5865C108.541 60.4845 108.706 60.3018 108.948 60.0385C109.189 59.7616 109.435 59.4707 109.687 59.1658C109.953 58.8598 110.2 58.5756 110.428 58.3133C110.656 58.051 110.813 57.8621 110.901 57.7466L110.896 57.6859C110.894 57.6589 110.893 57.6454 110.893 57.6454C110.906 57.6309 110.912 57.6168 110.911 57.6033C110.901 57.4819 110.853 57.3974 110.766 57.3499C110.692 57.2879 110.6 57.2544 110.489 57.2496C110.391 57.2301 110.288 57.2315 110.179 57.2536C110.069 57.2622 109.98 57.2693 109.911 57.2747C109.417 57.3135 108.904 57.4557 108.371 57.7013C107.838 57.9469 107.352 58.2634 106.913 58.6509C106.486 59.0238 106.141 59.4583 105.876 59.9543C105.61 60.4368 105.498 60.9411 105.539 61.4673Z" fill="url(#paint8_linear)"/>
<path d="M116.977 61.7488C116.703 61.2544 116.561 60.7633 116.55 60.2754C116.539 59.774 116.612 59.2999 116.77 58.853C116.941 58.3916 117.17 57.973 117.458 57.5974C117.759 57.2072 118.084 56.8694 118.435 56.5839C118.784 56.2849 119.139 56.0533 119.499 55.8893C119.872 55.7241 120.204 55.6437 120.494 55.648C120.784 55.6388 121.018 55.7222 121.198 55.8982C121.377 56.0741 121.455 56.3599 121.431 56.7555C121.472 57.2817 121.337 57.7539 121.024 58.1722C120.726 58.5894 120.383 58.9693 119.996 59.312C119.622 59.6537 119.274 59.9662 118.951 60.2495C118.641 60.5183 118.494 60.7606 118.511 60.9765C118.521 61.0979 118.597 61.187 118.739 61.2436C118.895 61.2992 119.071 61.3397 119.267 61.3651C119.461 61.3769 119.654 61.3821 119.848 61.3804C120.041 61.3788 120.179 61.3815 120.263 61.3885C121.531 61.0172 122.486 60.7792 123.127 60.6745C123.766 60.5563 124.172 60.5312 124.343 60.5992C124.513 60.6537 124.487 60.7711 124.267 60.9514C124.059 61.1171 123.729 61.306 123.276 61.5181C122.822 61.7167 122.292 61.9077 121.685 62.0912C121.078 62.2747 120.474 62.4037 119.872 62.4782C119.269 62.5392 118.702 62.5227 118.17 62.4288C117.651 62.3338 117.254 62.1071 116.977 61.7488ZM120.216 56.851C119.942 56.8726 119.687 56.9673 119.452 57.1352C119.216 57.303 119.005 57.5097 118.817 57.7553C118.642 57.9863 118.496 58.2421 118.38 58.5227C118.263 58.7899 118.179 59.0408 118.129 59.2756C118.157 59.2869 118.178 59.2921 118.192 59.291L118.254 59.2861C118.446 59.271 118.659 59.1728 118.893 58.9915C119.128 58.8101 119.346 58.5961 119.547 58.3495C119.748 58.0894 119.913 57.8252 120.044 57.5569C120.175 57.2887 120.232 57.0534 120.216 56.851Z" fill="url(#paint9_linear)"/>
<path d="M125.925 60.3933C125.92 60.3394 125.912 60.2314 125.899 60.0695C125.899 59.893 125.897 59.7778 125.893 59.7239C126.254 58.7044 126.745 57.7494 127.366 56.8589C127.986 55.9683 128.703 55.1653 129.517 54.4496C129.544 54.4475 129.585 54.4375 129.639 54.4197C129.705 54.3873 129.752 54.37 129.779 54.3679C130.15 54.3387 130.458 54.3959 130.704 54.5395C130.963 54.6685 131.171 54.8558 131.328 55.1013C131.498 55.3323 131.623 55.6008 131.702 55.9068C131.781 56.1993 131.831 56.4873 131.853 56.7706C131.895 57.2968 131.815 57.8597 131.613 58.4593C131.411 59.0455 131.116 59.5981 130.729 60.1173C130.354 60.6219 129.912 61.0504 129.401 61.4029C128.889 61.7418 128.345 61.9339 127.768 61.9793C127.192 62.0246 126.748 61.9102 126.437 61.636C126.138 61.3473 125.967 60.933 125.925 60.3933ZM127.511 60.0242C127.523 60.1726 127.593 60.2689 127.72 60.3132C127.848 60.3575 127.974 60.3747 128.097 60.365C128.44 60.338 128.763 60.2244 129.065 60.0242C129.379 59.8094 129.649 59.5574 129.875 59.2681C130.113 58.9642 130.295 58.6377 130.419 58.2885C130.544 57.9393 130.594 57.6096 130.569 57.2993C130.558 57.1508 130.531 56.99 130.49 56.8168C130.461 56.6289 130.407 56.4703 130.328 56.3407C130.248 56.1977 130.129 56.0917 129.972 56.0226C129.828 55.9524 129.628 55.9546 129.372 56.0291C129.183 56.0847 128.977 56.2773 128.754 56.6071C128.532 56.9368 128.32 57.32 128.12 57.7566C127.932 58.1787 127.779 58.6048 127.661 59.0349C127.542 59.4516 127.492 59.7813 127.511 60.0242Z" fill="url(#paint10_linear)"/>
<defs>
<linearGradient id="paint0_linear" x1="78.4556" y1="48.121" x2="80.419" y2="73.083" gradientUnits="userSpaceOnUse">
<stop offset="0.0208333" stop-color="#C9984A"/>
<stop offset="0.46875" stop-color="#D0A14C"/>
<stop offset="1" stop-color="#AC7710"/>
</linearGradient>
<linearGradient id="paint1_linear" x1="78.4556" y1="48.121" x2="80.419" y2="73.083" gradientUnits="userSpaceOnUse">
<stop offset="0.0208333" stop-color="#C9984A"/>
<stop offset="0.46875" stop-color="#D0A14C"/>
<stop offset="1" stop-color="#AC7710"/>
</linearGradient>
<linearGradient id="paint2_linear" x1="78.4556" y1="48.121" x2="80.419" y2="73.083" gradientUnits="userSpaceOnUse">
<stop offset="0.0208333" stop-color="#C9984A"/>
<stop offset="0.46875" stop-color="#D0A14C"/>
<stop offset="1" stop-color="#AC7710"/>
</linearGradient>
<linearGradient id="paint3_linear" x1="78.4556" y1="48.121" x2="80.419" y2="73.083" gradientUnits="userSpaceOnUse">
<stop offset="0.0208333" stop-color="#C9984A"/>
<stop offset="0.46875" stop-color="#D0A14C"/>
<stop offset="1" stop-color="#AC7710"/>
</linearGradient>
<linearGradient id="paint4_linear" x1="78.4556" y1="48.121" x2="80.419" y2="73.083" gradientUnits="userSpaceOnUse">
<stop offset="0.0208333" stop-color="#C9984A"/>
<stop offset="0.46875" stop-color="#D0A14C"/>
<stop offset="1" stop-color="#AC7710"/>
</linearGradient>
<linearGradient id="paint5_linear" x1="78.4556" y1="48.121" x2="80.419" y2="73.083" gradientUnits="userSpaceOnUse">
<stop offset="0.0208333" stop-color="#C9984A"/>
<stop offset="0.46875" stop-color="#D0A14C"/>
<stop offset="1" stop-color="#AC7710"/>
</linearGradient>
<linearGradient id="paint6_linear" x1="78.4556" y1="48.121" x2="80.419" y2="73.083" gradientUnits="userSpaceOnUse">
<stop offset="0.0208333" stop-color="#C9984A"/>
<stop offset="0.46875" stop-color="#D0A14C"/>
<stop offset="1" stop-color="#AC7710"/>
</linearGradient>
<linearGradient id="paint7_linear" x1="78.4556" y1="48.121" x2="80.419" y2="73.083" gradientUnits="userSpaceOnUse">
<stop offset="0.0208333" stop-color="#C9984A"/>
<stop offset="0.46875" stop-color="#D0A14C"/>
<stop offset="1" stop-color="#AC7710"/>
</linearGradient>
<linearGradient id="paint8_linear" x1="78.4556" y1="48.121" x2="80.419" y2="73.083" gradientUnits="userSpaceOnUse">
<stop offset="0.0208333" stop-color="#C9984A"/>
<stop offset="0.46875" stop-color="#D0A14C"/>
<stop offset="1" stop-color="#AC7710"/>
</linearGradient>
<linearGradient id="paint9_linear" x1="78.4556" y1="48.121" x2="80.419" y2="73.083" gradientUnits="userSpaceOnUse">
<stop offset="0.0208333" stop-color="#C9984A"/>
<stop offset="0.46875" stop-color="#D0A14C"/>
<stop offset="1" stop-color="#AC7710"/>
</linearGradient>
<linearGradient id="paint10_linear" x1="78.4556" y1="48.121" x2="80.419" y2="73.083" gradientUnits="userSpaceOnUse">
<stop offset="0.0208333" stop-color="#C9984A"/>
<stop offset="0.46875" stop-color="#D0A14C"/>
<stop offset="1" stop-color="#AC7710"/>
</linearGradient>
</defs>
</svg>
